<svg xmlns="http://www.w3.org/2000/svg" width="426.7" height="89.6" viewBox="0 0 4267 896">
  <defs>
    <style>
      .cls-1 {
        fill: #333367;
      }

      .cls-1, .cls-2 {
        fill-rule: evenodd;
      }

      .cls-2 {
        fill: #e0252a;
      }
    </style>
  </defs>
  <path id="Color_Fill_1" data-name="Color Fill 1" class="cls-1" d="M3777,123c46.37-.509,87.54,46.5,63,94-10.63,20.583-27.87,30.445-54,36-9.6,2.04-21.04-2.517-27-5-24.55-10.226-54.58-42.307-39-81,6.76-16.785,19.5-32.07,36-39C3762.06,125.456,3771.25,126.5,3777,123Zm-5,5c-7.32,4.691-17.06,4.447-24,9-10.54,6.909-20.45,20.254-25,33-12.89,36.089,16.75,68.419,40,76,6.47,2.109,20.26,4.182,29,2,26.07-6.508,58.26-31.943,49-69-1.86-7.441-1.62-13.229-5-19C3823.72,139.012,3806.29,127.51,3772,128Zm-28,23c32.89-.6,66.14-2.807,78,18,4.53,7.953,5.53,21.832,0,30-2.78,4.115-10.24,10.016-15,12-3.75,1.565-7.99.971-11,3h1c4.88,4.285,23.47,6.683,25,12a18.289,18.289,0,0,1-6,1l-13-4c-7.48-3.688-14.01-10.307-22-13,0.16,4.485.85,12.221-1,15-4.53,2.885-28.43,1.114-36,1V151Zm37,5v48l6,5c23.49,0.614,46.74-18.038,31-41C3811.94,159.16,3796.29,155.574,3781,156Zm-2088,2q79.485,138.486,159,277H1718c-2.74-8.956-9.41-17.47-14-25-1.41-2.319-1.9-8.531-4-10H1566c-2.62,5.782-16.7,32.748-21,35-3.47,1.818-6.17.135-9-1a16.8,16.8,0,0,1-2-6c8.4-11.1,13.55-24.193,21-36,21.2-33.588,42.02-68.9,63-103,7.54-12.259,12.49-24.751,20-37,12.36-20.16,23.37-41.386,36-62C1680.03,180.155,1689.25,169.5,1693,158Zm-287,9c29.99-.828,54.73,6.842,73,18,8.29,5.064,18.77,5.859,19,19-2.46,1.533-2.28,2.291-6,3-11.56-11.146-34.68-23.64-53-28-17.48-4.16-43.5.522-38,20,4.75,16.84,19.71,25.756,29,38,22.29,29.389,51.03,50.7,71,83,12.45,20.128,21.72,54.593,6,80-30.41,49.143-121.37,54.222-174,22-10.56-6.467-28.08-12.369-30-27,3.15-3.008,3.25-4.053,10-4,11.51,14.9,46.1,33.685,68,39,13.95,3.386,32.46.049,36-10,4.29-5.61.51-14.4-2-19-3.93-7.191-8.24-12.7-13-19q-7.005-6.5-14-13c-22.74-30-51.61-52.194-70-87-8.62-16.313-13.82-42.029-5-63,10.28-24.445,33.69-38.539,60-47C1379.88,169.788,1401.31,169.9,1406,167Zm1215,0c71.72-.851,112.89,38.55,134,89,12.55,29.978,11.88,75.3-1,105-16.14,37.223-48.55,64-89,77-9.55,3.07-20.79,2.814-31,5-19.6,4.2-53.81-8.2-65-14-38.88-20.156-61.45-45.269-75-91-4.49-15.143-7.44-38.846-3-57q3.495-12.5,7-25a146.776,146.776,0,0,1,78-79c8.51-3.678,18.73-5.684,28-8C2609.15,167.712,2616.92,169.513,2621,167ZM2139,299c-0.25-32.409,3.01-68.832-3-97-1.8-8.425-.93-24.387,4-27,16.14-12.122,14.28,23.483,12,34v19c-4.59,21.043-2,48.966-2,73V442h-2c-5.02-5.876-14.2-7.841-21-12-14.18-8.673-29.34-16.061-44-25-29.04-17.7-60.82-33.216-90-51-9.42-5.741-19.54-8.252-29-14-12.69-7.709-26.38-13.612-40-21-4.8-2.606-8.91-6.342-15-8v72c2.46,3.862-.13,11.6,1,17,1.91,9.121,1.85,25.842,0,35h-2c-3.82,3.1-7.54,1.161-12,0v-2c-3.53-5.6-1.04-13.68-1-21,0.09-16.2-.25-35.873,3-51V168h2c5.22,6.152,14.96,8.638,22,13,15.16,9.4,31.3,17.431,47,27,38.86,23.684,79.83,44.355,121,66,11.25,5.912,23.12,11.829,35,18C2129.47,294.323,2133.31,297.9,2139,299Zm301,0c-0.25-32.409,3.01-68.832-3-97-1.8-8.425-.93-24.387,4-27,16.14-12.122,14.28,23.483,12,34v19c-4.59,21.043-2,48.966-2,73V442h-2c-5.02-5.876-14.2-7.841-21-12-14.18-8.673-29.34-16.061-44-25-29.04-17.7-60.82-33.216-90-51-9.42-5.741-19.54-8.252-29-14-12.69-7.709-26.38-13.612-40-21-4.8-2.606-8.91-6.342-15-8v72c2.46,3.862-.13,11.6,1,17,1.91,9.121,1.85,25.842,0,35h-2c-3.82,3.1-7.54,1.161-12,0v-2c-3.53-5.6-1.04-13.68-1-21,0.09-16.2-.25-35.873,3-51V168h2c5.22,6.152,14.96,8.638,22,13,15.16,9.4,31.3,17.431,47,27,38.86,23.684,79.83,44.355,121,66,11.25,5.912,23.12,11.829,35,18C2430.47,294.323,2434.31,297.9,2440,299Zm646-127,7,1c0.33,1,.67,2,1,3,3.38,5.164-1.97,14.1-4,18-7.64,14.68-15.24,29.746-24,44-30.26,49.232-55.61,103.134-86,153-8.23,13.508-14.71,28.6-22,42-3,5.515-4.44,15.166-10,18-2-6.862-7.52-12.444-11-18-8.74-13.971-16.5-28.392-25-42-30.09-48.161-56.05-97.791-86-146-9.75-15.694-18.91-31.963-29-48-4.13-6.567-10.39-13-13-21h132q43.995,72.492,88,145h2c3.21-13.631,14.11-27.739,21-39,4.6-7.52,6.4-15.449,11-23,8.93-14.67,17.92-30.5,26-46,4.38-8.4,11.91-35.414,19-39C3083.77,173.318,3085.23,172.689,3086,172Zm585,1,9,2v2c4.64,7.6-13.05,24.721-17,29-15.71,17.019-30.09,35.21-44,54-5.21,7.038-15.17,13.014-17,23,6.34,5.263,9.49,14.855,14,22,7.07,11.207,14.66,22.365,22,34,20.72,32.828,45.13,63.6,66,96H3566c-3.01-11.506-12.16-22.624-18-32-7.57-12.159-13.4-23.972-21-36-7.9-12.511-18.04-24.569-25-38h-2c-5.06,8.72-13.17,15.14-19,23-14.32,19.294-30.44,37.234-44,57-6.92,10.092-12.41,26.857-28,28-3.25-3.292-4.91-3.031-5-10,3.25-3.466,5.13-8.182,8-12q7.995-8,16-16c12.65-16.742,26.43-32.015,39-49,7.86-10.619,22.41-20.986,27-34-6.16-6.259-9.19-15.369-14-23-12.83-20.358-25.43-41.72-39-62-8.64-12.913-17.87-25.969-27-39-3.58-5.1-8.78-9.438-11-16h131c15.47,32.241,41.54,62.519,60,93,0.33-.333.67-0.667,1-1,9.79-7.067,16.81-21.2,24-31C3634.95,215.268,3652.53,192.5,3671,173Zm-531,3h153c18.91,0,53.52-3.663,68,2a28.9,28.9,0,0,1,1,9l-3,1c-6.35,3.978-21.84.09-29,0l-75-1v61l80-1c11.3-.143,25.1-1.226,35,1,1.69,3.621,1.9,5.551,1,10-10.32,3.791-24.43,1-37,1h-79V423l75,2c13.45-2.875,34.81-4.514,48-2,0.81,3.267,1.63,3.889,2,8-2.73,1.708-2.5,2.536-7,3-3.52,2.177-12.69,1-18,1H3140C3140.02,350.778,3140.03,260.222,3140,176Zm-526,4V431c70.49,0.846,108.49-29.13,129-78,7.98-19.006,14.78-52,7-78-3.54-11.846-7.85-25.046-14-35C2712.34,201.731,2676.87,179.77,2614,180ZM370,250h3c7.414,10.874,21.481,19.063,32,27l15,15c13.731,10.375,26.271,21.645,40,32l6,7c14.023,10.6,26.387,23.73,40,34,33.472,25.252,63.484,53.8,97,79,21.893,16.465,40.648,39.04,67,51,8.17,3.708,16.054,3.039,25,3,39.473-.172,50.563-17.368,74-35,6.121-4.605,14.72-8.625,19-15l1,1c8.876,5.762,15.78,14.422,25,20v2c-8.6,3.1-15.065,12.79-22,18-21.947,16.485-40.352,30.37-71,39-7.912,2.228-22.718,5.49-34,3-49.462-10.918-67.482-30.763-101-56l-13-13c-34.764-26.218-65.345-56.851-100-83-13.109-9.891-23.71-24.3-37-34-17.68-12.9-33.481-26.876-51-40-5.232-3.919-9.6-10.284-15-14-6.332-4.355-22.267-13.275-25-20C353.289,266.256,364.814,257.867,370,250Zm1264,34c-6.35,13.29-15.4,25.791-23,38-6.79,10.906-11.22,22.087-18,33-6.03,9.719-15.57,20.392-19,32h118v-2c-6.95-5.876-9.14-18-14-26-10.72-17.642-21.17-36.6-32-54C1641.72,298.116,1639.52,289.608,1634,284ZM327,286h4c3,4.3,6.643,4.986,11,8l4,5c8.081,6.038,15.55,11.191,24,17l10,10c12.5,9.388,24.485,18.654,37,28,5.631,4.2,10.32,10.87,16,15,53.17,38.664,99.265,84.974,152,124,28.506,21.1,54.774,52.355,100,56,53.624,4.322,83.11-26.279,113-47,9.265-6.423,16.649-19.177,28-23,4.9,7.152,22.238,15.383,24,23-8.514,5.508-15.039,14.05-23,20-25.862,19.329-51.594,40.583-85,52-28.371,9.7-79.616,5.365-104-4-28.017-10.76-48.809-31.389-71-48-37.87-28.348-70.237-61.82-108-90-7.735-5.772-14.164-14.346-22-20-32.671-23.571-61.108-52.069-93-76-7.986-5.993-35.07-23.827-38-32C312.9,300.567,322.848,292.314,327,286Zm-37,31h3c7.081,10.173,20.734,17.845,31,25,9.333,6.5,16.893,17.154,26,24,17.146,12.89,32.806,26.168,50,39,8.1,6.045,14.821,15.05,23,21,65.225,47.446,120.176,107.546,190,150,22.662,13.779,74.891,27.286,113,18,38.3-9.332,63.261-25.976,91-45,5-3.431,9.162-9.381,14-13,7.41-5.542,14.579-10.423,22-16,3.926-2.95,5.659-7.112,11-9,5.334,7.737,23.189,15.245,25,24-5.85,2.068-8.553,7.646-13,11-13.435,10.134-25.634,22.3-39,32-21.159,15.354-42.934,29.583-69,40-5.188,2.073-9.3,1.276-15,3-0.9.273-4.35,2.912-5,3-6.81.925-19.131,2.083-28,4H689c-36.765,0-66.677-7.379-90-21-77.431-45.22-133.288-111.011-205-161-11.463-7.99-20.679-20.739-32-29-15.982-11.663-30.254-24.143-46-36-6.365-4.793-11.407-12.457-18-17-7.451-5.134-28.883-19.305-32-27C273.928,333.166,285.282,324.176,290,317Zm-38,32h3c8.726,11.093,26.45,23.314,38,32,7.5,5.638,13.447,14.482,21,20,19.938,14.567,37.27,31.172,57,46l13,13c50.116,36.561,93.608,80.8,145,116,4.6,3.148,8.471,8.744,13,12,23.257,16.717,48.533,32.933,77,44,14.212,5.525,35.673,6.385,48,10,15.358,4.5,55.878.325,68-3,2.643-.725,4.6.694,6,1,11.863-3.928,26.243-5.542,38-10,32.851-12.455,57.979-33.866,84-53,11.017-8.1,32.883-21.29,40-32l1,1c4.722,2.329,22.373,16.316,24,21h-1c-6.858,7.193-16.01,12.985-24,19-5.986,4.507-10.975,11.5-17,16-18.079,13.49-36.606,27.169-56,39-19.941,12.165-44.491,21.072-69,28-14.143,4-26.155,3.2-37,6-9.055,2.339-46.008,2.343-55,0l-2-2c-18.8-.93-38.735-5.691-55-11-81.618-26.639-130.251-87.294-193-133-12.7-9.253-23.094-23.033-36-32-31.551-21.923-58.355-48.925-89-72-7.066-5.321-12.736-13.934-20-19-11.819-8.242-20.882-18.62-32-27-4.3-3.242-10.644-4.808-12-11C237.011,363.566,247.285,355.774,252,349Zm-40,33c9.722,4.841,15.507,15.064,24,21,24.483,17.113,44.479,39.285,68,57,77.138,58.1,146.2,124.337,226,180,40.02,27.916,111.7,60.867,181,51,2.653-.378,9.682,2.343,14,1,8.375-2.6,20.112-2.373,30-5,53.807-14.294,89.912-32.027,131-61,12.678-8.94,24.353-19.522,37-29,6.752-5.06,12.636-16.1,22-18,3.821,5.77,17.042,16.076,23,20l-1,1c-5.014,6.347-12.377,10.165-19,15l-11,11c-8.7,6.536-17.168,12.465-26,19-12.112,8.962-24,21.125-37,29-53.386,32.344-100.147,48.975-186,49-19.539.006-41.332,0.36-58-4-17.853-4.67-39.646-9.765-58-17-29.736-11.722-55.007-31.407-79-49-43.242-31.707-80.92-68.579-124-100-9.284-6.771-16.733-17.243-26-24-30.712-22.4-57.654-48.2-88-71-8.75-6.575-16.042-16.751-25-23-7.509-5.238-38.545-27.171-41-34C196.362,398.524,207.936,388.269,212,382Zm-37,31c2.076,0.372,1.924.242,3,1,11.823,4.088,23.77,21.854,34,29,21.988,15.36,40.663,33.928,62,50l13,13c85.024,62.175,155.4,140.2,247,196,23.446,14.282,51.783,21.571,80,31l46,6h29c11.774,3.354,55.393-.682,69-4,15.866-3.868,28.738-3.771,43-9,36.286-13.3,68.228-30.138,97-51,14.114-10.234,26.812-24.157,41-34,6.749-4.682,13.174-8.486,19-14,4.338-4.105,16.669-18.561,22-17,4.8,1.59,24.97,18.229,26,23-17.382,11.049-30.273,28.472-47,40-35.432,24.42-70.358,51.99-111,71-5.042,2.358-10.746,1.812-16,4-19.4,8.079-42.147,12.8-62,19l-30,3c-11.421,2.516-26.061,2-40,2-31.112.007-56.181-.566-81-7l-5,1c-24.526-6.478-43.846-11.515-68-20-3.033-1.065-5.473-4.527-8-6-4.8-2.8-10.074-3.114-15-6-8.764-5.135-18.444-11.657-27-17-7.455-4.655-14.831-7.14-22-12-18.2-12.337-34.742-27.394-53-40l-11-11c-12.519-9.428-23.225-19.712-36-29l-8-9c-16.914-12.761-32.013-27.273-49-40l-12-12c-29.77-20.674-54.963-46.284-84-68-7.06-5.28-12.779-13.966-20-19-12.034-8.389-21.5-18.633-33-27-5.627-4.094-15.013-8.541-18-15C155.055,431.791,171.91,417.672,175,413Z"/>
  <path id="Color_Fill_2" data-name="Color Fill 2" class="cls-2" d="M658,100c29.971-.568,66.724-2.9,92,3l15,1c10.175,3.239,23.032,4.37,34,8,31.709,10.493,62.712,21.645,89,38,25.647,15.956,49.807,34.37,74,52,15.8,11.512,28.655,26.583,45,38q4,4.5,8,9c14.92,11.284,27.94,23.681,43,35,15.01,11.277,27.98,26.732,43,38,23.55,17.669,44.48,37.292,68,55,8.82,6.638,16.06,16.5,25,23,8.39,6.1,15.79,11.829,24,18,1.67,2,3.33,4,5,6,5.62,3.919,13.54,7.146,16,14-8.94,5.68-16.86,18.657-28,21-6.04-8.827-27.46-23.356-37-30-7.22-5.03-12.96-13.692-20-19-23.87-17.994-45.08-38.032-69-56-15-11.268-28.01-26.72-43-38-58.253-43.841-108.163-95.4-171-135-23.383-14.737-42.194-23.514-71-34-8.075-2.939-25.379-9.187-33-8,0,0-23.47-4.407-26-5-9.281-2.176-45.422-2.789-53-1H659c-6.41,1.467-14.473.205-22,2-19.908,4.748-41.115,7.472-61,15-42.2,15.977-74.782,42.346-109,66-6.5,4.491-11.8,11.353-18,16-8.043,6.026-16.5,11.362-24,18-3.564,3.154-11.518,13.773-16,12-3.5-1.173-24.77-18.957-26-22,17.249-11.015,32.409-29.573,49-42,31.033-23.245,62.78-45.969,99-64,25.508-12.7,53.895-19.675,84-28,9.683-2.678,19.6-2.9,29-5C648.642,99.962,654.751,102.07,658,100Zm3,49c30.841-.583,65.634-1.912,91,4,7.219,1.682,12.129-.22,19,2,36.613,11.83,68.671,24.48,98,43,32.273,20.379,59.062,48.415,89,71,55.89,42.161,105.95,90.819,162,133l12,12c14.71,11.055,28.27,22.921,43,34,8.65,6.5,15.27,15.252,25,21v2c-9.84,3.52-14.43,16.507-26,18-7.07-10.434-20.6-18.741-31-26q-7.005-7-14-14c-20.94-15.8-39.32-33.946-61-49q-5.505-5.5-11-11c-9.77-7.376-19.17-14.609-29-22l-12-12c-41.2-30.933-78.579-65.38-120-96-24.4-18.041-48.52-39-78-52-27.681-12.21-75.1-29.456-110-26-0.849.084-3.514-1.876-4-2l-39,1c-13.1,3.958-34.53,3.349-50,9-35.417,12.938-65.861,26.58-95,45-18.974,11.994-35.571,28-54,41-6.942,4.9-12.625,16.025-22,18-5.331-7.817-19.958-11.965-22-22,13.7-7.9,23.42-21.219,36-30,31.96-22.308,61.476-49.534,99-66,20.978-9.205,43.6-16.123,68-22C633.968,150.84,654.461,153.169,661,149Zm17,47c82.226-2.114,137.5,25.789,186,60,8.515,6.006,15.749,14.811,24,21,40.3,30.225,75.6,66.266,117,95,13.67,9.486,24.39,24.526,38,34,29.45,20.5,53.77,46.677,82,68,6.86,5.181,30.86,22.577,34,29,0.25,0.968.78,0.379,0,1-3.42,4.517-19.1,17.813-25,19-8.65-9.014-18.58-16.731-29-24q-7.005-7-14-14c-20.39-15.389-37.97-33.349-59-48-9.75-6.792-17.49-17.842-27-25-26.684-20.088-50.461-42.913-78-62-8.286-5.743-14.97-14.975-23-21-41.242-30.945-79.376-69.257-132-88-15.159-5.4-36.363-7.335-50-11H708c-13.728-2.935-35.433-1.154-47,2l-4-1c-15.042,3.489-33.327,5.119-47,11-19.431,8.358-38.379,18.424-55,30-6.174,4.3-11.881,10.8-18,15-5.922,4.067-11.327,6.806-17,11-5.226,3.864-9.671,10.3-15,14-6.669,4.631-14.535,8.279-19,15l-1-1c-4.616-2.278-22.382-16.517-24-21,11.217-2.983,30.514-26.764,41-34,28.831-19.9,55.936-40.975,90-56,18.048-7.961,34-9.826,54-15C655.1,197.645,673.607,199.555,678,196Zm-8,48c40.4-.821,73.023.341,101,11,40.773,15.533,68.8,45.83,102,69,7.617,5.316,13.579,14.388,21,20,44.593,33.722,84.046,73.97,130,106l6,7c10.68,8.051,19.91,16.3,31,24q5.505,5.5,11,11c12.64,9.514,24.35,19.479,37,29,4.95,3.724,8.06,8.9,14,12v2c-8.9,5.326-16.07,17.7-27,20-2.44-5.661-18.54-15.945-24-20-20.95-15.559-39.93-34.19-61-50-6.32-4.744-11.526-12.489-18-17-44.048-30.7-82.088-68.8-125-101-6.346-4.762-11.472-12.465-18-17-19.661-13.659-36.5-29.017-57-42-16.179-10.249-32.5-20.438-53-27-5.151-1.648-15.135-1.064-24-3-7.936-1.733-22.684-4.348-33-2-9.742,2.217-21.257.829-31,4-24.512,7.977-46.007,18.4-65,32-14.692,10.521-28.343,23.129-43,34-6.27,4.651-10.888,12.208-19,15-5.082-7.428-23.3-15.918-25-24,9.974-3.322,20.754-17.792,29-24,20.666-15.558,40.609-32.223,63-46,16.722-10.289,41.881-15.191,60-21C658.038,244.064,665.331,246.967,670,244Zm10,49c84.2-1.512,117.388,37.9,164,73,6.708,5.052,12.2,13.034,19,18,15.019,10.973,27.284,23.88,42,35l15,15c23.036,16.068,44.54,34.273,65,53,2.862,2.619,6.9,3.683,10,6,11.3,8.433,21.23,18.426,33,27,9.85,7.174,18.12,17.815,28,25,7.11,5.171,24.08,14.88,27,23-7.53,5-14.75,16.74-25,18-3.98-5.485-10.53-7.952-16-12-7.78-5.754-14.6-12.179-23-18-7.47-5.179-13.75-13.555-21-19-10.8-8.106-21.182-15.921-32-24-5.631-4.2-10.2-11-16-15-53.655-36.99-98.8-84.085-151-123-5.249-3.913-9.74-10.1-15-14-16.232-12.022-35.264-26.5-56-33-7.282-2.282-13.015-.653-21-3-4.575-1.345-17.5-4.23-25-2-7.481,2.224-18.295,2.843-26,6a216.589,216.589,0,0,0-44,25c-11.126,8.134-21.691,17.53-33,26-5.431,4.067-8.828,10.586-16,13-5.041-7.377-21.826-15.038-24-23,9.084-5.721,16.489-14.639,25-21,18.554-13.867,36.788-27.746,57-40,10.261-6.221,24.977-10.13,35-13C662.92,294.019,674.2,296.669,680,293Zm1,48c71.15-1.213,96.438,40.153,136,70,58.9,44.434,109.757,97.011,169,141,5.994,4.451,11.026,11.52,17,16,8.36,6.266,16.55,11.705,25,18,5.56,4.142,9.33,9.605,16,13-0.63,1.754-.19.971-1,2-4.19,4.446-21.27,19.816-27,21-5.39-7.959-15.33-14.21-23-20-17.307-13.061-31.886-29.382-50-42-12.244-8.529-21.925-22.21-34-31-40.914-29.784-75.371-67.123-117-96-28.03-19.444-47.252-49.849-86-59-39.1-9.236-69.674,21.4-88,35-5.837,4.331-10.862,12.293-19,14-4.773-6.913-21.347-14.329-23-22,9.025-4.5,14.369-13.256,22-19,11.308-8.511,22.916-17.607,35-25a126.2,126.2,0,0,1,27-12C666.17,343.1,675.837,344.373,681,341ZM2450,504c24.34-.606,63.53,11.915,69,28-4.26,1.492-4.77,4.45-9,6-13.9-20.868-60.77-28.384-90-16-24.1,10.208-36.67,31.729-43,60-1.61,7.2-.4,20.372,1,26,7.88,31.685,19.73,52.438,49,62,31.2,10.193,67.09-.758,83-18,1.75,0.631.97,0.193,2,1,3.15,1.749,5.71,3.238,7,7h-1c-13.26,20.2-60.7,32.483-93,22-26.76-8.686-46.55-27.091-56-53-3-8.223-1.88-15.322-4-25-1.53-6.971-1.83-18.417,0-26,8.07-33.463,24.63-56.08,54-68C2425.77,507.254,2445.05,507,2450,504Zm716,0c24.34-.606,63.53,11.915,69,28-4.26,1.492-4.77,4.45-9,6-13.89-20.849-60.78-28.41-90-16-24.07,10.225-36.67,31.723-43,60-1.57,7.009-.29,19.556,1,25,7.75,32.825,18.88,53.157,49,63,31.2,10.193,67.09-.758,83-18,1.75,0.631.97,0.193,2,1,3.15,1.749,5.71,3.238,7,7h-1c-13.26,20.2-60.7,32.483-93,22-26.76-8.686-46.55-27.091-56-53-3-8.223-1.88-15.322-4-25-1.53-6.971-1.83-18.417,0-26,8.07-33.463,24.63-56.08,54-68C3141.77,507.254,3161.05,507,3166,504Zm472,0c26.58-.43,44.42,5.772,59,17,3.98,3.067,5.98,8.818,10,12-0.33.333-.67,0.667-1,1-2.12,2.618-5.66,3.619-8,6-1.75-.631-0.97-0.193-2-1-8.33-7.993-14.47-15.92-27-20-30.56-9.954-90.68,2.819-80,41,4.53,16.178,22.46,18.347,39,23,33.42,9.4,70.33,8.617,82,40,2.41,6.479,4.27,16.337,2,25-10.94,41.677-79.43,48.715-116,26-9.68-6.01-22.7-13.116-25-26,3.43-.948,9.27-5.216,11-4,4.92,4.862,8.42,11.869,14,16,10.54,7.8,24.02,11.617,39,15,32.3,7.3,73.34-15.624,64-47-9.54-32.053-79.72-26.955-107-44-28.46-17.786-15.89-58.628,8-71,7.76-4.018,17.91-5.915,27-8C3630.88,504.11,3635.37,505.6,3638,504Zm-2331,2c66.82-.749,119.72-9.417,134,45,2.99,11.4.15,25.69-3,34-16.87,44.5-58.46,37.609-118,37v62h-13V506Zm166,0h13v85h114V506h13V684h-13V603H1486v81h-13V506Zm256,0c1.79,13.588,16.46,36.389,22,49,13.38,30.447,25.59,59.528,39,90,5.47,12.428,14.12,25.375,18,39h-14q-9.495-22-19-44H1667c-2.2,16.136-15.17,27.9-18,44h-14c1.54-12.49,13.13-29.016,18-40,14.39-32.442,28.99-64.244,43-96,4.43-10.033,8.88-19.646,13-29,1.13-2.563,3.41-11.871,5-13h15Zm103,0c57.2-.588,108.77-8.488,129,30,4.64,8.833,9.53,24.239,6,38-1.79,6.976-5.09,15.58-9,21-5.4,7.487-16.44,14.868-26,18-6.33,2.072-16.84.509-22,4,8.5,5.639,15.86,15.879,22,24,11.62,15.38,29.31,26.6,40,43h-17c-12.39-19.379-33.29-32.885-47-51-2.32-3.064-11.3-15.761-14-17h-49v68h-13V506Zm165,0h15c5.21,9.122,12.5,17.307,18,26,10.28,16.257,19.36,32,30,48,6.54,9.842,14.57,18.973,20,30,0.67-.333,1.33-0.667,2-1,11.85-24.887,31.46-47.046,46-70,3.3-5.2,16.77-30.894,20-33h17V684h-13V526h-1c-15.58,27.635-35.48,53.762-53,80-4.54,6.8-9.37,22.882-19,24-14.47-25.335-31.73-49.544-48-74-6.55-9.839-14.57-18.973-20-30h-1V684h-13V506Zm284,0c1.79,13.588,16.46,36.389,22,49,13.38,30.447,25.59,59.528,39,90,5.47,12.428,14.12,25.375,18,39h-14q-9.495-22-19-44H2219c-2.2,16.136-15.17,27.9-18,44h-14c1.54-12.49,13.13-29.016,18-40,14.39-32.442,28.99-64.244,43-96,4.43-10.033,8.88-19.646,13-29,1.13-2.563,3.41-11.871,5-13h15Zm272,0h122v13H2566v69h104v13H2566v70h112v13H2553V506Zm156,0h13v89c0,15.417-1.69,33.7,3,45,4.97,11.988,12.62,19.237,23,26,7.62,4.964,22.71,11.623,38,8,20.99-4.972,36.64-17.56,43-37,3.87-11.837,2-30.156,2-45V506h13v86c0,15.4,1.79,33.447-2,46-5.36,17.768-15.62,29.093-30,38-9.35,5.79-26.92,14.126-45,10-30.27-6.907-48.83-22.267-57-51-3.28-11.528-1-28.723-1-42V506Zm159,0h142v12h-65V684h-13V518h-64V506Zm169,0h13V684h-13V506Zm300,0c1.79,13.588,16.46,36.389,22,49,13.38,30.447,25.59,59.528,39,90,5.47,12.428,14.12,25.375,18,39h-14q-9.495-22-19-44H3275c-2.2,16.136-15.17,27.9-18,44h-14c1.54-12.49,13.13-29.016,18-40,14.39-32.449,29-64.254,43-96,4.43-10.033,8.88-19.646,13-29,1.13-2.563,3.41-11.871,5-13h15Zm106,0h13V671h100v13H3443V506ZM1320,518v92c55.99,0.7,98.13,9.177,109-38,2.52-10.924-1.86-22.9-5-29C1407.11,510.15,1367.85,517.416,1320,518Zm525,0v86c50.53,0.659,98.19,9.269,108-33,2.14-9.228-.92-20.542-3-26C1936.7,510.1,1891.91,517.405,1845,518Zm-76,110c-1.29-9.882-8.39-18.821-12-27-7.98-18.077-14.06-34.9-22-53-4.06-9.249-10.36-18.36-13-29-0.33.333-.67,0.667-1,1-7.48,8.384-10.28,23.233-15,34-10.23,23.3-26.02,49.1-33,74h96Zm552,0c-1.2-9.192-7.65-17.384-11-25-8.23-18.706-14.76-36.229-23-55-4.06-9.249-10.36-18.36-13-29-0.33.333-.67,0.667-1,1-7.48,8.384-10.28,23.233-15,34-10.45,23.824-25.8,48.32-33,74h96Zm1056,0c-1.29-9.882-8.39-18.821-12-27-7.98-18.077-14.06-34.9-22-53-4.06-9.249-10.36-18.36-13-29-0.33.333-.67,0.667-1,1-7.48,8.384-10.28,23.233-15,34-10.23,23.3-26.02,49.1-33,74h96Z"/>
</svg>
